<?xml version="1.0"?>
<svg xmlns="http://www.w3.org/2000/svg" viewBox="0 0 512 512" width="512" height="512"><g id="outline"><path d="M397.579,172.938A8,8,0,0,0,390.188,168H367.611a65.344,65.344,0,0,0-36.357,11.008l-7.464,4.976-5.214-.035h-.322a46.615,46.615,0,0,0-41.954,25.94l-.272.545a9.917,9.917,0,0,1-8.89,5.572h-.225a10.3,10.3,0,0,1-4.97-1.292l-36.5-20.277a85.511,85.511,0,0,0-71.669-5.326,47.716,47.716,0,0,0-12.262,6.811,7.661,7.661,0,0,0-1.46.63L97.578,220.64l-.17.1a22.887,22.887,0,0,1-30.086-5.893l-6.014-8.02A25.169,25.169,0,1,0,21.93,238.149l7.405,8.784a70.526,70.526,0,0,0,93.043,13.221l2.9-1.935.634,4.438-11.531,23.064a21.956,21.956,0,0,0,.575,20.754l28.283,49.494A8,8,0,0,0,150.188,360h32a8,8,0,0,0,7.156-4.422l8-16a8,8,0,0,0,0-7.156l-4.423-8.845a20.821,20.821,0,0,0-13.456-10.912l-2.543-5.087,1.308-.654a19.923,19.923,0,0,1,11.357-1.966l53.022,6.445,18.171,39.31A16.051,16.051,0,0,0,275.3,360H382.188a8,8,0,0,0,7.406-4.973l4.912-12.015A26.387,26.387,0,0,0,361.132,308.2l-6.251,2.253-11.338-15.276,3.59-7.181h7.283a31.248,31.248,0,0,0,30.313-38.823l-2.214-8.858.108-.324A44.331,44.331,0,0,0,377,200.5l18.845-18.845A8,8,0,0,0,397.579,172.938ZM121.751,241.344l-8.248,5.5A54.529,54.529,0,0,1,41.567,236.62l-7.405-8.783a9.169,9.169,0,1,1,14.345-11.412l6.014,8.019a38.892,38.892,0,0,0,51.03,10.069l17.938-10.174a47.772,47.772,0,0,0-.691,16.425A7.977,7.977,0,0,0,121.751,241.344Zm238.78-35.687a28.453,28.453,0,0,1,6.912,29.279l-.844,2.534a8,8,0,0,0-.171,4.47l2.779,11.118A15.248,15.248,0,0,1,354.416,272H342.188a8,8,0,0,0-7.155,4.422l-8,16a8,8,0,0,0,.732,8.346l17.811,24a8,8,0,0,0,9.137,2.757l11.846-4.27a10.386,10.386,0,0,1,13.136,13.7L376.816,344H309.275l-21.921-51.151a8,8,0,0,0-14.708,6.3L291.867,344H275.3l-20.042-43.356a8,8,0,0,0-6.3-4.585l-57.448-6.984a35.864,35.864,0,0,0-20.443,3.538l-8.464,4.232a8,8,0,0,0-3.578,10.733l8,16A8,8,0,0,0,174.188,328a4.915,4.915,0,0,1,4.422,2.733L181.244,336l-4,8H154.831l-25.979-45.463a5.987,5.987,0,0,1-.158-5.66l12.65-25.3a8.01,8.01,0,0,0,.764-4.71L138.7,239.007a32.6,32.6,0,0,1,20.7-34.916,69.548,69.548,0,0,1,58.28,4.331l36.5,20.277a26.351,26.351,0,0,0,12.724,3.306h.253a25.824,25.824,0,0,0,23.191-14.423l.271-.544a30.717,30.717,0,0,1,27.645-17.09h.213l7.665.051a8.029,8.029,0,0,0,4.49-1.344l9.5-6.336A49.392,49.392,0,0,1,367.611,184h3.264l-10.344,10.343A8,8,0,0,0,360.531,205.657Z"/><circle cx="344.188" cy="232" r="10"/><path d="M315.846,226.343a8,8,0,1,0-11.315,11.314L306.874,240h-4.686a8,8,0,0,0,0,16h4.686l-2.343,2.343a8,8,0,0,0,11.315,11.314l16-16a8,8,0,0,0,0-11.314Z"/><path d="M471.46,275.111A57.283,57.283,0,0,0,496,228.279,56.589,56.589,0,0,0,479.317,188L468,176.683a40.692,40.692,0,0,1-12-28.962A41.164,41.164,0,0,1,475.886,112.6l16.23-9.739a8,8,0,0,0-8.232-13.72l-16.231,9.738A57.249,57.249,0,0,0,440,147.721,56.589,56.589,0,0,0,456.683,188L468,199.317a40.692,40.692,0,0,1,12,28.962A41.164,41.164,0,0,1,460.114,263.4l-16.23,9.739a7.955,7.955,0,0,0-1.614,1.288,40.006,40.006,0,1,0,29.19.683Zm2.793,52.447-21.71-17.368,26.738,7.639A23.968,23.968,0,0,1,474.253,327.558Zm2.843-26.994-32.956-9.416a23.969,23.969,0,0,1,32.956,9.416Zm-44.981,13.773,26.843,21.474a23.949,23.949,0,0,1-26.843-21.474Z"/><path d="M72,288H65.889a20.833,20.833,0,0,1-18.734-11.578,8,8,0,1,0-14.31,7.156A36.744,36.744,0,0,0,65.889,304H72a8,8,0,0,0,0-16Z"/><path d="M426.929,264.3A8,8,0,1,0,416.3,252.342l-9,8A8,8,0,0,0,417.929,272.3Z"/><path d="M438.073,250a7.967,7.967,0,0,0,4.993-1.753l6.33-5.064a28.254,28.254,0,0,0,2.33-42.04,8,8,0,1,0-11.315,11.314,12.251,12.251,0,0,1-1.011,18.231l-6.33,5.065a8,8,0,0,0,5,14.247Z"/></g></svg>
