<svg id="Capa_1" enable-background="new 0 0 512 512" height="512" viewBox="0 0 512 512" width="512" xmlns="http://www.w3.org/2000/svg"><g><path d="m407 129h-79.961c-14.268-16.07-33.888-27.283-56.039-30.812v-51.188h33c8.284 0 15-6.716 15-15s-6.716-15-15-15h-96c-8.284 0-15 6.716-15 15s6.716 15 15 15h33v51.188c-22.151 3.529-41.771 14.741-56.039 30.812h-89.961v-67c0-24.813-20.187-45-45-45h-35c-8.284 0-15 6.716-15 15v320c0 8.284 6.716 15 15 15h35c24.813 0 45-20.187 45-45v-67h89.961c37.896 42.682 104.21 42.651 142.078 0h57.961v65c0 8.284 6.716 15 15 15h97c8.284 0 15-6.716 15-15v-86c0-57.897-47.103-105-105-105zm-342 193c0 8.271-6.729 15-15 15h-20v-290h20c8.271 0 15 6.729 15 15zm30-97v-66h71.915c-7.887 21.22-7.893 44.762 0 66zm161 32c-35.841 0-65-29.159-65-65s29.159-65 65-65 65 29.159 65 65-29.159 65-65 65zm226 48h-67v-65c0-8.284-6.716-15-15-15h-54.915c7.887-21.22 7.893-44.762 0-66h61.915c41.355 0 75 33.645 75 75z"/><path d="m436.485 382.387c-8.324 9.97-35.485 44.168-35.485 65.613 0 25.916 21.084 47 47 47s47-21.084 47-47c0-21.445-27.161-55.643-35.485-65.613-5.99-7.173-17.032-7.184-23.03 0zm11.515 82.613c-9.373 0-16.999-7.625-17-16.998.046-4.713 7.303-17.771 17-31.412 9.697 13.642 16.954 26.699 17 31.41 0 9.374-7.626 17-17 17z"/></g></svg>